<svg xmlns="http://www.w3.org/2000/svg" width="96" height="96" viewBox="0 0 25.399999 25.4"><path d="m 10.239124,4.2333716 c -0.7859073,-0.004 -1.6534133,0.34719 -2.5152963,1.22729 2.3462813,-0.43061 4.5661083,2.22638 2.7495033,4.8742094 4.677918,-0.5849794 2.848973,-6.0840994 -0.234207,-6.1014994 z m 9.982624,1.03992 c -2.346989,1.23367 -4.947901,-0.45067 -6.998914,4.18671 2.342744,-1.32182 5.264764,1.6995694 6.998914,-4.18671 z m -12.9978073,0.43744 c -5.101164,2.94203 0.635226,9.7993194 3.1869353,15.3096194 0.338887,0.24198 0.639045,0.25127 0.812409,-0.49988 0.270742,-1.24146 1.216157,-2.21309 2.312072,-3.12448 C 10.93289,13.625531 8.5101447,9.8102516 7.2239407,5.7107316 Z m 6.7079553,4.20901 c -0.943969,-0.005 -1.98591,0.4172794 -3.021133,1.4743794 2.818158,-0.5172 5.484385,2.67406 3.302427,5.85441 5.618728,-0.70263 3.421966,-7.3078994 -0.281294,-7.3287894 z" style="fill:#fff;fill-opacity:1;fill-rule:evenodd;stroke:#000;stroke-width:0;stroke-linecap:butt;stroke-linejoin:miter;stroke-miterlimit:4;stroke-dasharray:none;stroke-opacity:1"/></svg>