<svg xmlns="http://www.w3.org/2000/svg" width="96" height="96" viewBox="0 0 25.399999 25.4"><path d="m 7.9062797,20.577845 c 0,-0.0189 0.05699,-0.27878 0.126653,-0.57752 0.06966,-0.29875 0.126653,-0.55579 0.126653,-0.57119 0,-0.0154 -0.126693,-0.0106 -0.28154,0.0106 l -0.28154,0.0386 0.07249,-0.23619 c 0.055,-0.17922 0.229209,-0.37339 0.722254,-0.80505 l 0.649767,-0.56887 -0.157041,-0.24877 -0.157041,-0.24877 0.233149,-0.20501 c 1.3185993,-1.15949 2.8982283,-1.69596 4.4412873,-1.50834 1.152506,0.14013 2.224023,0.55387 3.302235,1.27507 0.316265,0.21155 0.575028,0.4015 0.575028,0.42211 0,0.0206 -0.07412,0.13465 -0.16472,0.25343 -0.145566,0.19085 -0.153298,0.22468 -0.0665,0.29095 0.05402,0.0412 0.369146,0.28872 0.700276,0.54994 l 0.602055,0.47495 0.0027,0.62216 0.0027,0.62216 -0.597655,-0.41669 c -0.32871,-0.22918 -0.610393,-0.39517 -0.625962,-0.36885 -0.01557,0.0263 -0.04835,0.16894 -0.07284,0.31697 -0.0245,0.14803 -0.05869,0.26914 -0.076,0.26914 -0.01731,0 -0.340116,-0.28755 -0.717361,-0.63899 -0.377245,-0.35144 -0.709671,-0.63599 -0.738725,-0.63232 -0.02905,0.004 -0.08132,0.0897 -0.116151,0.19116 -0.03483,0.10147 -0.08144,0.20227 -0.103573,0.224 -0.02213,0.0217 -0.278608,-0.1152 -0.56994,-0.30429 -0.579007,-0.37582 -1.079072,-0.64088 -1.467808,-0.77804 l -0.250544,-0.0884 0.04369,0.87096 c 0.02403,0.47902 0.0583,0.92082 0.07615,0.98177 0.02023,0.0691 -0.0017,0.11082 -0.05825,0.11082 -0.04989,0 -0.163173,0.057 -0.251731,0.12666 -0.08856,0.0697 -0.176599,0.12665 -0.195649,0.12665 -0.01905,0 -0.01723,-0.48445 0.004,-1.07655 0.03331,-0.92714 0.02563,-1.07656 -0.05534,-1.07656 -0.185274,0 -0.70022,0.40514 -1.17677,0.92584 -0.266717,0.29143 -0.503516,0.50868 -0.526221,0.48278 -0.0227,-0.0259 -0.07821,-0.22752 -0.123333,-0.44804 l -0.08205,-0.40095 -0.7818363,0.77996 -0.781836,0.77996 v -0.24185 -0.24185 l -0.237475,0.19231 c -0.784775,0.63552 -0.965733,0.77496 -0.965733,0.74416 z m -1.951457,-2.23857 c -1.146807,-1.26949 -1.079606,-1.06684 -0.559324,-1.68674 l 0.24393,-0.29064 -0.201005,-0.25379 -0.201005,-0.25379 0.270679,-0.32101 c 0.56258,-0.66718 1.819687,-1.68885 2.803799,-2.27869 2.3094123,-1.38417 4.9525463,-1.63611 7.5778203,-0.72231 1.515015,0.52734 3.076112,1.53032 4.260843,2.73752 l 0.370524,0.37755 -0.109963,0.16783 c -0.06048,0.0923 -0.09898,0.17563 -0.08555,0.18518 0.02076,0.0148 0.671509,0.5444 0.840124,0.68376 0.05402,0.0446 -2.15638,2.52459 -2.250192,2.52459 -0.06388,0 -1.726818,-1.32442 -1.752341,-1.39562 -0.01127,-0.0314 0.05233,-0.15261 0.141331,-0.26929 l 0.161816,-0.21216 -0.394639,-0.28788 c -0.778815,-0.56813 -1.675055,-1.01095 -2.611073,-1.29011 -0.460436,-0.13732 -0.740279,-0.1759 -1.456514,-0.20077 -1.073493,-0.0373 -1.696934,0.0861 -2.592592,0.51301 -0.5424923,0.25858 -1.4512893,0.87977 -1.7011803,1.16279 -0.110304,0.12493 -0.109771,0.13663 0.0156,0.34227 0.07139,0.1171 0.129911,0.2327 0.130041,0.2569 2.87e-4,0.0538 -1.782464,1.63417 -1.843415,1.63417 -0.02389,0 -0.499861,-0.50525 -1.057705,-1.12277 z m 2.439073,-0.29312 c 0.20271,-0.19112 0.252167,-0.27473 0.207932,-0.35151 -0.171765,-0.29814 -0.15991,-0.3001 -0.653747,0.10839 l -0.47385,0.39195 -0.83074,-0.87048 -0.83074,-0.87048 -0.314061,0.3483 c -0.172734,0.19156 -0.314376,0.369 -0.31476,0.39431 -3.83e-4,0.0253 0.414953,0.50309 0.922972,1.06174 l 0.92367,1.01573 0.548675,-0.48859 c 0.301772,-0.26872 0.668364,-0.60143 0.814649,-0.73936 z m 11.6973593,-0.32359 c 0.473179,-0.52135 0.859054,-0.96305 0.8575,-0.98157 -0.0016,-0.0185 -0.192484,-0.18574 -0.42429,-0.37162 -0.344891,-0.27656 -0.433544,-0.32163 -0.487956,-0.24811 -0.03657,0.0494 -0.40563,0.49302 -0.820132,0.9858 l -0.75364,0.89595 -0.412203,-0.29414 -0.412203,-0.29414 -0.148464,0.1726 -0.148465,0.1726 0.174427,0.14667 c 0.09593,0.0807 0.445148,0.3623 0.77603,0.62584 l 0.601604,0.47918 0.168733,-0.17058 c 0.0928,-0.0938 0.55588,-0.59714 1.029059,-1.11848 z m -12.0804843,-0.1291 c 0.273412,-0.22664 0.728748,-0.60423 1.011858,-0.83908 1.5517213,-1.28724 3.4751653,-1.71014 5.4063013,-1.18866 0.754514,0.20374 2.097535,0.86054 2.705712,1.32321 0.591927,0.4503 1.259777,0.92661 1.29924,0.92661 0.01702,0 0.449031,-0.48411 0.960019,-1.07581 l 0.92907,-1.0758 -0.429784,-0.42041 c -1.460607,-1.42875 -3.288705,-2.44115 -5.205295,-2.88269 -0.783776,-0.18057 -2.429509,-0.22751 -3.250315,-0.0927 -1.6108893,0.26457 -3.1348443,1.01633 -4.6711783,2.30428 -0.330882,0.27738 -0.768105,0.67952 -0.971605,0.89363 l -0.370002,0.38929 0.844952,0.88784 c 0.464724,0.48832 0.912722,0.97211 0.995553,1.0751 0.08283,0.10299 0.172597,0.18725 0.199482,0.18725 0.02688,0 0.272581,-0.18543 0.545992,-0.41206 z m 1.478676,-2.1935 c -0.304121,-0.0876 -0.621968,-0.41029 -0.703905,-0.71458 -0.210563,-0.78197 0.393544,-1.4389 1.4105253,-1.53387 0.228521,-0.0213 0.431152,-0.0134 0.450291,0.0175 0.01914,0.031 0.05478,0.16284 0.07921,0.29304 l 0.04441,0.23674 -0.282229,-0.0387 c -0.400827,-0.0549 -0.8322763,0.1423 -0.9775183,0.44687 -0.100111,0.20994 -0.100366,0.2407 -0.0037,0.44347 0.185969,0.38999 0.6949853,0.41775 1.2130593,0.0662 0.127578,-0.0866 0.241771,-0.15741 0.253763,-0.15741 0.01199,0 0.04105,0.1026 0.06458,0.228 0.05442,0.2901 -0.05856,0.42355 -0.49641,0.58635 -0.434422,0.16154 -0.7842323,0.20355 -1.0521093,0.12638 z m 5.7184213,-0.0547 -0.265953,-0.11823 0.313507,-0.93802 c 0.172429,-0.51591 0.325997,-0.97146 0.341263,-1.01233 0.01875,-0.0502 0.270303,0.0196 0.775693,0.21525 0.411365,0.15926 0.75519,0.29494 0.764054,0.30152 0.02427,0.018 -0.119394,0.41245 -0.150224,0.41245 -0.0147,0 -0.202615,-0.0715 -0.417589,-0.15882 -0.402066,-0.16338 -0.450654,-0.15689 -0.518712,0.0693 -0.0348,0.11562 0.01507,0.1536 0.399892,0.30459 l 0.439644,0.17248 -0.06491,0.1862 c -0.07693,0.22069 -0.110296,0.22434 -0.543979,0.0595 -0.18323,-0.0696 -0.356824,-0.12662 -0.385766,-0.12662 -0.02894,0 -0.10439,0.17098 -0.167664,0.37996 -0.06327,0.20897 -0.146152,0.37794 -0.184174,0.37548 -0.03802,-0.002 -0.188811,-0.0577 -0.335085,-0.1227 z m -2.467213,-0.4997 c -0.530711,-0.13628 -0.90812,-0.58634 -0.90812,-1.08294 0,-0.36452 0.241655,-0.7635 0.564069,-0.9313 0.315956,-0.16444 0.889799,-0.19559 1.371017,-0.0744 0.279323,0.0703 0.281349,0.0729 0.281349,0.3483 0,0.30536 -0.03897,0.32605 -0.330266,0.17542 -0.290608,-0.15028 -0.773005,-0.09 -0.986235,0.12322 -0.329509,0.32951 -0.162758,0.82364 0.311469,0.92297 0.204223,0.0428 0.595499,-2.4e-4 0.830883,-0.0915 0.09459,-0.0367 0.110822,-0.005 0.110822,0.21871 0,0.22466 -0.02368,0.27066 -0.167524,0.32534 -0.236683,0.09 -0.840397,0.12709 -1.077464,0.0662 z m 6.532768,-0.52259 c -0.795813,-0.6626 -1.860827,-1.30206 -2.844132,-1.70769 -0.314734,-0.12983 -0.581629,-0.26421 -0.593099,-0.29862 -0.01147,-0.0344 0.0268,-0.10073 0.08505,-0.14738 0.05824,-0.0466 0.308566,-0.2764 0.556272,-0.51055 l 0.450373,-0.42572 0.202484,0.19626 c 0.234799,0.22757 0.399537,0.21702 0.711643,-0.0456 0.298205,-0.25092 0.892041,-0.517 1.231435,-0.55176 0.206124,-0.0211 0.58216,-0.16867 1.147197,-0.45015 0.462309,-0.23031 0.862024,-0.4187495 0.888257,-0.4187495 0.02623,0 -0.02693,0.097801 -0.118138,0.2174195 -0.09121,0.11958 -0.165833,0.23479 -0.165833,0.25601 0,0.0212 -0.112871,0.19138 -0.250825,0.37812 -0.137953,0.18674 -0.357883,0.55589 -0.488732,0.82033 -0.222627,0.44992 -0.231087,0.48763 -0.131716,0.587 0.09937,0.0994 0.09393,0.12074 -0.08477,0.33267 -0.105027,0.12457 -0.315954,0.42017 -0.468726,0.6569 -0.272485,0.42222 -0.275128,0.43143 -0.138927,0.48395 0.07636,0.0294 0.333322,0.13174 0.571018,0.22731 l 0.432177,0.17378 -0.271213,0.27634 c -0.149167,0.15199 -0.286653,0.27413 -0.305523,0.27142 -0.01887,-0.003 -0.205292,-0.14729 -0.41427,-0.32129 z m -13.2036183,0.18628 c -0.121904,-0.0319 -0.250291,-0.0949 -0.285305,-0.13994 -0.03501,-0.0451 -0.204242,-0.15335 -0.376063,-0.24067 l -0.312402,-0.15877 0.550212,-0.25784 c 0.302616,-0.14181 0.550212,-0.2776 0.550212,-0.30176 0,-0.0242 -0.242696,-0.29194 -0.539324,-0.59507 l -0.539323,-0.55114 0.161738,-0.0737 c 0.179491,-0.0818 0.171668,-0.11396 -0.144149,-0.59303 -0.08478,-0.1286 -0.136568,-0.26225 -0.115088,-0.29701 0.02148,-0.0348 -0.04326,-0.15751 -0.143867,-0.27279 -0.179986,-0.20625 -0.643115,-0.9007 -0.643115,-0.96435 0,-0.0179 0.206603,0.0801 0.459118,0.21771 0.252516,0.13766 0.509936,0.25068 0.572046,0.25117 0.06211,4.8e-4 0.261589,0.0763 0.443287,0.16835 0.181698,0.0921 0.415851,0.16489 0.52034,0.16175 0.110722,-0.003 0.380284,0.0985 0.646134,0.24417 l 0.456155,0.24989 0.113786,-0.1613 c 0.32801,-0.46496 0.258191,-0.45877 0.738013,-0.0655 0.237129,0.19437 0.456982,0.3534 0.48856,0.3534 0.03158,0 0.208273,0.13536 0.392654,0.30081 0.184381,0.16544 0.43125,0.37355 0.548599,0.46246 l 0.21336,0.16167 -0.37378,0.14228 c -0.555617,0.21151 -1.529539,0.78043 -2.235888,1.30611 -0.34363,0.25574 -0.643883,0.49589 -0.667229,0.53367 -0.08245,0.13341 -0.257987,0.17719 -0.478681,0.1194 z m 3.80595,-2.53327 c -0.07545,-0.18157 -0.195317,-0.55778 -0.26636,-0.83603 -0.07104,-0.27824 -0.156595,-0.55715 -0.190114,-0.61978 -0.04587,-0.0857 -0.03782,-0.11387 0.03254,-0.11387 0.05141,0 0.111093,0.0285 0.132619,0.0633 0.02153,0.0348 0.06339,0.0633 0.09303,0.0633 0.02964,0 -0.04264,-0.27007 -0.160618,-0.6001695 -0.117979,-0.33009 -0.200002,-0.63797 -0.182272,-0.68417 0.01773,-0.0462 -0.02546,-0.32469 -0.09598,-0.61887 -0.173439,-0.7235 -0.174338,-0.71873 0.108369,-0.57512 0.130611,0.0663 0.465451,0.18284 0.7440893,0.25888 0.278637,0.076 0.554925,0.15199 0.613971,0.16879 0.08346,0.0237 0.115827,-0.023 0.145404,-0.2101 0.128363,-0.81191 0.183784,-1.04576 0.254237,-1.0728 0.04351,-0.0167 0.09763,-0.1925 0.120277,-0.39068 0.05999,-0.52501 0.101684,-0.56768 0.384146,-0.39311 0.12812,0.0792 0.254678,0.11887 0.281573,0.0883 0.02687,-0.0305 0.113748,-0.23364 0.193065,-0.45132 0.07932,-0.21769 0.182482,-0.39579 0.229255,-0.39579 0.105384,0 0.197,-0.16691 0.324266,-0.59075 0.109347,-0.36417 0.09614,-0.37566 0.340899,0.29659 0.07425,0.20392 0.188599,0.41667 0.254112,0.47276 0.06742,0.0577 0.150394,0.26098 0.191183,0.46831 0.04031,0.20486 0.105868,0.36631 0.148755,0.36631 0.04218,0 0.205912,-0.0389 0.363854,-0.0864 l 0.287167,-0.0864 0.03809,0.38722 c 0.02095,0.21298 0.05532,0.70069 0.07639,1.08382 0.02107,0.38313 0.04885,0.73098 0.06173,0.77301 0.02755,0.0899 0.572017,-0.0824 1.440654,-0.45578 0.305929,-0.1315 0.567925,-0.22741 0.582212,-0.21312 0.01429,0.0143 -0.0025,0.15261 -0.03725,0.30737 -0.03477,0.15477 -0.07208,0.4707 -0.08289,0.70207 -0.01082,0.23137 -0.06611,0.54568 -0.12288,0.69846 -0.180589,0.4860195 -0.287308,1.0505395 -0.212704,1.1251395 0.04741,0.0474 -0.0013,0.21324 -0.165266,0.56264 -0.127867,0.27248 -0.232485,0.56856 -0.232485,0.65796 v 0.16253 l -0.609118,-0.14725 c -1.412399,-0.34145 -2.941834,-0.33925 -4.303617,0.006 -0.343996,0.0873 -0.629426,0.15866 -0.634288,0.15866 -0.0049,0 -0.07058,-0.14856 -0.1460333,-0.33012 z" style="fill:#fff;fill-opacity:1;stroke-width:4.00001px"/></svg>