<svg xmlns="http://www.w3.org/2000/svg" width="96" height="96" viewBox="0 0 25.399999 25.4"><path d="m 11.833265,4.3938917 c 0.3184,0.349486 0.48926,0.755935 0.58679,1.129647 -0.36816,-0.09759 -0.76211,-0.268723 -1.11092,-0.586527 0,0 0.12591,0.371436 0.13358,0.876561 -0.008,0.505126 -0.13358,0.876691 -0.13358,0.876691 0.34884,-0.317804 0.74279,-0.489036 1.11092,-0.586657 -0.0975,0.373743 -0.26839,0.780291 -0.58679,1.129776 h 0.12441 c -0.33346,0.238757 -0.53196,0.624449 -0.53227,1.034563 1.7e-4,0.427911 0.21621,0.828058 0.57374,1.063242 0.0265,-0.364859 0.33404,-0.650864 0.69983,-0.650864 0.36582,0 0.67346,0.286005 0.69996,0.650864 0.3575,-0.235184 0.57339,-0.635331 0.5736,-1.063242 -2.5e-4,-0.410114 -0.19867,-0.795806 -0.53213,-1.034563 h 0.12441 c -0.3184,-0.349454 -0.48939,-0.756002 -0.58692,-1.129776 0.36815,0.09762 0.76212,0.268853 1.11092,0.586657 0,0 -0.12579,-0.371565 -0.13346,-0.876691 0.008,-0.505125 0.13346,-0.876561 0.13346,-0.876561 -0.34884,0.317804 -0.7428,0.488937 -1.11092,0.586527 0.0975,-0.373712 0.26852,-0.780192 0.58692,-1.129647 z m -1.67987,4.352319 c -0.2566504,0 -0.4679304,0.211283 -0.4679304,0.46793 0,0.256616 0.21128,0.467801 0.4679304,0.467801 0.25661,0 0.4678,-0.211185 0.4678,-0.467801 0,-0.256647 -0.21119,-0.46793 -0.4678,-0.46793 z m 5.09129,0 c -0.25665,0 -0.4678,0.211283 -0.4678,0.46793 0,0.256616 0.21115,0.467801 0.4678,0.467801 0.25661,0 0.4678,-0.211185 0.4678,-0.467801 0,-0.256647 -0.21118,-0.46793 -0.4678,-0.46793 z m -2.54571,0.167949 c -0.25665,0 -0.46777,0.211154 -0.4678,0.467801 0,0.256647 0.21115,0.467899 0.4678,0.46793 h 1.3e-4 c 0.25665,0 0.4678,-0.211283 0.4678,-0.46793 0,-0.256647 -0.21118,-0.467801 -0.4678,-0.467801 z m -1.8234,0.243008 v 1.29e-4 c -0.0222,1.83e-4 -0.0447,8.75e-4 -0.0674,0.0022 0.16461,0.255902 0.43202,1.1424013 0.55306,1.9072483 0.12101,0.764848 0.17314,1.569671 0.18759,1.995874 l 0.58201,-0.01977 c -0.0152,-0.448317 -0.0677,-1.265932 -0.19444,-2.067057 -0.0879,-0.555163 -0.18977,-1.0954713 -0.38098,-1.5223883 -0.0794,-0.17729 -0.34665,-0.299155 -0.6798,-0.296235 z m 3.6468,1.29e-4 c -0.33315,-0.003 -0.60025,0.118817 -0.67967,0.296106 -0.1912,0.426855 -0.29325,0.9671633 -0.38112,1.5223883 -0.12675,0.801126 -0.17921,1.61874 -0.19443,2.067058 l 0.58214,0.0199 c 0.0145,-0.426234 0.0666,-1.231154 0.18758,-1.996002 0.12104,-0.764817 0.38832,-1.6513783 0.55294,-1.9072493 -0.0228,-0.0013 -0.0452,-0.002 -0.0674,-0.0022 z m -5.5474604,0.0155 c -0.25665,0 -0.4678,0.211153 -0.4678,0.467801 v 1.29e-4 c 0,0.256647 0.21118,0.4678013 0.4678,0.4678013 h 1.3e-4 c 0.25661,-3.1e-5 0.4678,-0.2111543 0.4678,-0.4678013 v -1.29e-4 c 0,-0.256617 -0.21119,-0.467801 -0.4678,-0.467801 z m 7.4479904,0 c -0.25665,0 -0.4678,0.211184 -0.4678,0.467801 v 1.29e-4 c 3e-5,0.256647 0.21115,0.4677703 0.4678,0.4678013 0.25662,0 0.4678,-0.2111543 0.4678,-0.4678013 v -1.29e-4 c 0,-0.256648 -0.21115,-0.467801 -0.4678,-0.467801 z m -8.5042604,0.609523 c -0.25664,0 -0.4678,0.211185 -0.4678,0.4678013 0,0.256647 0.21116,0.467801 0.4678,0.467801 h 1.3e-4 c 0.25665,-3.1e-5 0.4678,-0.211154 0.4678,-0.467801 -3e-5,-0.2565853 -0.21118,-0.4677703 -0.4678,-0.4678013 z m 9.5605304,0 c -0.25662,0 -0.46767,0.211185 -0.46767,0.4678013 0,0.256647 0.21105,0.467801 0.46767,0.467801 h 1.3e-4 c 0.25664,0 0.4678,-0.211154 0.4678,-0.467801 -3e-5,-0.2566163 -0.21116,-0.4678013 -0.4678,-0.4678013 z m -2.84569,0.02274 -2.5e-4,1.29e-4 c -0.0218,0.06501 -0.0438,0.131982 -0.0646,0.2028303 -0.023,0.07818 -0.0455,0.160542 -0.0676,0.244559 2.22752,0.628154 3.93933,2.231354 4.8997,3.928959 0.0304,-0.0021 0.0609,4.35e-4 0.0906,0.0074 l 0.51172,0.129708 c -0.9691,-1.937569 -2.8486,-3.803522 -5.36957,-4.5135493 z m -3.8685,1.29e-4 C 8.2438546,10.514875 6.3644846,12.381139 5.3954146,14.318867 l 0.51172,-0.129837 c 0.0297,-0.0069 0.0602,-0.0093 0.0906,-0.0072 0.96037,-1.697637 2.67212,-3.301059 4.8997004,-3.929089 -0.0221,-0.08402 -0.0447,-0.166382 -0.0677,-0.244559 -0.0208,-0.07085 -0.0427,-0.1376933 -0.0645,-0.2027013 v -1.29e-4 z m 1.93412,0.161101 c -0.25662,0 -0.46767,0.2111853 -0.46767,0.4678013 0,0.256647 0.21105,0.467801 0.46767,0.467801 h 1.3e-4 c 0.25664,0 0.4678,-0.211154 0.4678,-0.467801 0,-0.256647 -0.21116,-0.4678013 -0.4678,-0.4678013 z M 6.9844646,10.533956 c -0.25662,0 -0.46777,0.211154 -0.4678,0.467801 0,0.256647 0.21115,0.467769 0.4678,0.467801 0.25664,0 0.46793,-0.211154 0.46793,-0.467801 0,-0.256647 -0.21129,-0.467801 -0.46793,-0.467801 z m 11.4296604,0 c -0.25664,0 -0.4678,0.211154 -0.4678,0.467801 0,0.256647 0.21116,0.467801 0.4678,0.467801 0.25662,-3.2e-5 0.4678,-0.211154 0.4678,-0.467801 0,-0.256647 -0.21118,-0.467801 -0.4678,-0.467801 z m -5.71463,0.484467 c -0.25665,0 -0.46781,0.211153 -0.46781,0.4678 v 1.3e-4 c 0,0.256616 0.21116,0.46764 0.46781,0.467671 0.25664,0 0.4678,-0.211055 0.4678,-0.467671 v -1.3e-4 c -4e-5,-0.256647 -0.21116,-0.4678 -0.4678,-0.4678 z m -6.5474104,0.368711 c -0.25662,0 -0.4678,0.211154 -0.4678,0.467801 0,0.256616 0.21118,0.467801 0.4678,0.467801 0.25665,0 0.4678,-0.211185 0.4678,-0.467801 0,-0.256647 -0.21115,-0.467801 -0.4678,-0.467801 z m 13.0948104,0 c -0.25662,0 -0.4678,0.211154 -0.4678,0.467801 0,0.256616 0.21118,0.467801 0.4678,0.467801 0.25665,0 0.4678,-0.211185 0.4678,-0.467801 0,-0.256647 -0.21115,-0.467801 -0.4678,-0.467801 z m -6.5474,0.683421 c -0.25662,3.1e-5 -0.46781,0.211184 -0.46781,0.467801 0,0.256616 0.21119,0.46793 0.46781,0.46793 0.25664,0 0.4678,-0.211283 0.4678,-0.46793 0,-0.256648 -0.21116,-0.467801 -0.4678,-0.467801 z m -7.2990404,0.291584 c -0.25665,0 -0.4679297,0.211153 -0.4679297,0.467801 v 1.29e-4 c 0,0.256616 0.2112797,0.467801 0.4679297,0.467801 0.25661,-3.1e-5 0.46767,-0.211314 0.46767,-0.46793 -3e-5,-0.256616 -0.21106,-0.46777 -0.46767,-0.467801 z m 14.5983304,0 c -0.25661,0 -0.46767,0.211153 -0.46767,0.467801 v 1.29e-4 c 0,0.256616 0.21106,0.46777 0.46767,0.467801 h 1.3e-4 c 0.25665,0 0.4678,-0.211185 0.4678,-0.467801 v -1.29e-4 c 0,-0.256648 -0.21115,-0.467801 -0.4678,-0.467801 z M 8.1895546,12.598817 c -1.1e-4,2e-4 -0.44334,0.589662 -0.2682,1.447328 0.10489,0.513481 0.55655,1.029484 0.82631,1.53169 -0.42018,-0.468103 -0.9432,-0.829993 -1.43376,-0.510047 -0.26059,0.16996 -0.27673,0.621761 -0.13397,0.894778 0.18508,0.354082 0.5751,0.616633 0.74142,0.596475 -0.23285,-0.715586 0.30681,-0.990373 0.81507,-0.509659 l -0.0109,0.0032 c -0.16477,0.04963 -0.2575,0.222253 -0.20787,0.387056 0.0496,0.164803 0.22225,0.257534 0.38706,0.207869 l 0.026,-0.0078 c -0.11355,0.598026 -0.57468,1.022765 -1.20535,1.180549 -0.44723,0.111876 -1.00136,-0.06357 -1.36594,-0.491572 -0.14427,-0.169339 -0.31971,-0.479836 -0.42891,-0.691044 0.44037,-0.04889 0.98346,0.06673 1.42175,0.220659 -0.49535,-0.665519 -0.73038,-1.186604 -0.91649,-2.067833 -0.12601,0.493633 -0.39369,1.038127 -0.72799,1.318008 -0.0871,-0.312616 0.14847,-1.341659 0.25464,-1.624708 l -1.7290897,0.438346 c 0.73397,0.623184 1.4125297,2.137479 1.9058197,3.602881 -0.18074,0.312525 -0.36148,0.625146 -0.54221,0.937669 0.30879,0.107591 0.6177,0.215128 0.92656,0.322719 0.12501,0.454995 0.22607,0.875124 0.29558,1.220727 2.23373,-0.94021 4.0201204,-1.318372 5.8809104,-1.343717 1.8607,0.02528 3.64709,0.403507 5.88091,1.343717 0.0695,-0.345571 0.1707,-0.765732 0.29572,-1.220727 0.30883,-0.107591 0.6176,-0.215128 0.92643,-0.322719 -0.18071,-0.312523 -0.36135,-0.625144 -0.54209,-0.937669 0.49329,-1.465402 1.17178,-2.979697 1.9057,-3.602881 l -1.72909,-0.438346 c 0.10616,0.283017 0.34173,1.312061 0.25463,1.624708 -0.33426,-0.279911 -0.60198,-0.824344 -0.72799,-1.318008 -0.18611,0.881322 -0.42104,1.402407 -0.91635,2.067833 0.43831,-0.153933 0.98131,-0.269578 1.42162,-0.220659 -0.10924,0.211208 -0.28465,0.521705 -0.42892,0.691044 -0.36461,0.428004 -0.91864,0.603448 -1.36581,0.491572 -0.6307,-0.157784 -1.09176,-0.582523 -1.20535,-1.180549 l 0.0258,0.0078 c 0.1648,0.04963 0.33742,-0.04307 0.38706,-0.207869 0.0496,-0.164803 -0.0431,-0.337423 -0.20787,-0.387056 l -0.0109,-0.0032 c 0.50826,-0.480682 1.04795,-0.205927 0.81506,0.509659 0.16633,0.02016 0.55635,-0.242393 0.74143,-0.596475 0.14272,-0.273047 0.12662,-0.724818 -0.13397,-0.894778 -0.49053,-0.319946 -1.01362,0.04194 -1.43376,0.510047 0.26975,-0.502206 0.72145,-1.01824 0.8263,-1.53169 0.17521,-0.85781 -0.2682,-1.447328 -0.2682,-1.447328 0,0 -0.68663,0.275824 -0.9843,1.099158 -0.17043,0.471519 -0.0713,1.110372 -0.0901,1.663206 -0.15629,-0.572061 -0.43805,-1.097097 -0.96157,-1.093215 -0.0273,1.84e-4 -0.0551,0.0019 -0.0837,0.005 -0.30925,0.03401 -0.52754,0.429728 -0.52348,0.73781 0.005,0.399522 0.23475,0.809882 0.39223,0.867001 0.11746,-0.757394 0.74335,-0.745007 0.96996,-0.04961 l -0.0221,-0.0066 c -0.1648,-0.04963 -0.33742,0.04306 -0.38705,0.207869 -0.0496,0.164802 0.0431,0.337422 0.20787,0.387056 l 0.0229,0.007 c -0.43077,0.504193 -1.14818,0.763084 -1.8402,0.329954 -0.60063,-0.375978 -0.78379,-0.94048 -0.88328,-1.428337 0.45351,0.118649 0.93993,0.327945 1.3702,0.719982 0,0 -0.17096,-0.549872 -0.16304,-1.070994 0.009,-0.617065 0.16304,-1.070994 0.16304,-1.070994 -0.42614,0.388247 -0.90747,0.597384 -1.35728,0.716623 0.11912,-0.456548 0.32805,-0.953231 0.71701,-1.380149 h -2.11524 c 0.38896,0.426918 0.59773,0.923539 0.71688,1.380149 -0.44975,-0.119239 -0.93095,-0.328376 -1.35715,-0.716623 0,0 0.15366,0.453898 0.16304,1.070994 0.008,0.521122 -0.16304,1.070994 -0.16304,1.070994 0.43027,-0.392037 0.91679,-0.601333 1.3702,-0.719982 -0.0995,0.487857 -0.28281,1.05239 -0.88341,1.428337 -0.69195,0.43313 -1.40927,0.174239 -1.8400704,-0.329954 l 0.0229,-0.007 c 0.16481,-0.04963 0.2575,-0.222254 0.20787,-0.387056 -0.0496,-0.164804 -0.22238,-0.257471 -0.38718,-0.207869 l -0.022,0.0066 c 0.22665,-0.695366 0.8525304,-0.707785 0.9699704,0.04961 0.1575,-0.05712 0.38694,-0.467479 0.39222,-0.867001 0.004,-0.308082 -0.21425,-0.7038 -0.52348,-0.73781 -0.0286,-0.0031 -0.0566,-0.0049 -0.0838,-0.005 -0.5235204,-0.0039 -0.8051504,0.521124 -0.9614404,1.093215 -0.0187,-0.552896 0.0804,-1.191749 -0.09,-1.663206 -0.29754,-0.823173 -0.98381,-1.099008 -0.98418,-1.099158 z m -3.2966897,0.921262 c -0.25665,0 -0.46781,0.211154 -0.46781,0.467801 0,0.256616 0.21116,0.467801 0.46781,0.467801 0.2566097,0 0.4677997,-0.211185 0.4677997,-0.467801 0,-0.256647 -0.21119,-0.467801 -0.4677997,-0.467801 z m 15.6137701,0 c -0.25665,0 -0.4678,0.211154 -0.4678,0.467801 0,0.256616 0.21115,0.467801 0.4678,0.467801 0.25665,0 0.4679,-0.211185 0.46793,-0.467801 0,-0.256647 -0.21128,-0.467801 -0.46793,-0.467801 z m -7.80689,3.820697 1.28804,0.798143 -1.28804,0.798142 -1.2879,-0.798142 z m -3.1597504,0.428269 c 0.43176,0.0089 0.7580704,0.197208 0.8118404,0.468576 0.0699,0.352623 -0.34207,0.735826 -0.9126104,0.848915 -0.57057,0.113058 -1.09762,-0.08405 -1.1675,-0.436666 -0.0699,-0.352592 0.34217,-0.735826 0.91273,-0.848915 0.11865,-0.02351 0.23885,-0.0343 0.35554,-0.03191 z m 6.3197704,0 c 0.11666,-0.0024 0.23698,0.0084 0.35566,0.03191 0.57057,0.113089 0.98265,0.496291 0.91274,0.848915 -0.0699,0.352619 -0.59693,0.549724 -1.1675,0.436666 -0.57054,-0.113089 -0.98246,-0.496292 -0.91261,-0.848915 0.0538,-0.271368 0.37994,-0.459662 0.81171,-0.468576 z m -9.5210004,0.736906 1.18817,0.239908 -0.74349,0.957306 -0.94684,-0.329438 z m 12.7223504,0 0.50204,0.867776 -0.94671,0.329438 -0.74363,-0.957436 z" style="color:#000;clip-rule:evenodd;fill:#fff;fill-opacity:1;fill-rule:evenodd;stroke:none;stroke-width:4px;stroke-linejoin:bevel;-inkscape-stroke:none;shape-rendering:geometricPrecision"/></svg>