<svg xmlns="http://www.w3.org/2000/svg" width="96" height="96" viewBox="0 0 25.399999 25.4"><path d="m 12.699899,4.2333297 c -2.061162,0 -4.0472821,0.74945 -5.5924991,2.10991 -1.5315227,1.34845 -2.5248487,3.19851 -2.7970967,5.2095703 -0.05111,0.37759 -0.07697,0.76366 -0.07697,1.1473 0,0.42032 0.0311,0.84273 0.09244,1.25564 0.295197,1.98641 1.297103,3.81035 2.8210567,5.13579 1.538949,1.33834 3.5110201,2.07513 5.5530611,2.07513 2.437487,0 4.759005,-1.05309 6.369589,-2.88932 0.0634,-0.0724 0.09138,-0.16856 0.07633,-0.26376 -0.01505,-0.0957 -0.07156,-0.1791 -0.154357,-0.22857 L 17.43791,16.85547 c -0.128013,-0.0767 -0.294028,-0.0568 -0.394163,0.0471 -1.191429,1.23577 -2.796323,1.88997 -4.525353,1.8383 C 11.053062,18.69817 9.6561258,18.12499 8.5852399,17.1267 7.3177619,15.94515 6.6330129,14.34246 6.6570409,12.61405 6.7027209,9.3290797 9.4136788,6.6566497 12.700315,6.6566497 h 0.02035 c 1.658134,0.006 3.198781,0.66552 4.338768,1.85717 0.108731,0.11376 0.275317,0.13887 0.405399,0.0609 l 1.552908,-0.9291 c 0.08279,-0.0495 0.138734,-0.13256 0.153932,-0.22794 0.0152,-0.0951 -0.01209,-0.19117 -0.07506,-0.26355 -1.611597,-1.85607 -3.94313,-2.92072 -6.396728,-2.92072 z m 0.0061,3.85746 -0.805501,1.58174 c -0.0015,0.003 -0.0031,0.006 -0.0049,0.009 -0.04405,0.0752 -0.140709,0.10045 -0.215846,0.0564 l -0.793204,-0.45862 0.494878,2.5522003 c 0.01012,0.0528 -0.0074,0.10716 -0.04644,0.14418 -0.06317,0.0599 -0.162904,0.0573 -0.222843,-0.006 l -1.026224,-1.1015 -0.2548602,0.59941 c -0.02957,0.0689 -0.103543,0.10735 -0.177045,0.092 L 8.3392169,11.28078 8.790416,12.66831 c 0.02477,0.0755 -0.01063,0.15768 -0.08248,0.19167 l -0.5143851,0.24023 0.9710969,0.78621 c 0.409586,0.33167 0.780278,0.59005 1.1574712,0.81356 v 0.81992 c 0,0.11895 -0.03656,0.23061 -0.09944,0.32419 0.239221,-0.11076 0.480039,-0.20369 0.721749,-0.28115 0.365888,-0.11726 0.73409,-0.19236 1.103192,-0.23302 0.21926,-0.0242 0.43886,-0.0334 0.658352,-0.0305 0.219493,-0.003 0.438881,0.006 0.658142,0.0305 0.369043,0.0407 0.737472,0.11576 1.103403,0.23302 0.241711,0.0775 0.482529,0.17039 0.72175,0.28115 -0.06292,-0.0936 -0.09965,-0.20524 -0.09965,-0.32419 v -0.81992 c 0.377192,-0.22351 0.748154,-0.48189 1.157682,-0.81356 L 17.218183,13.10021 16.7038,12.85998 c -0.07187,-0.034 -0.107188,-0.11615 -0.08248,-0.19167 l 0.451199,-1.38753 -1.314796,0.27882 c -0.07344,0.0153 -0.147474,-0.0231 -0.177045,-0.092 l -0.254648,-0.59941 -1.026225,1.1015 c -0.05994,0.0632 -0.159845,0.0658 -0.223055,0.006 -0.03902,-0.037 -0.0564,-0.0914 -0.04622,-0.14418 l 0.494877,-2.5522003 -0.793204,0.45862 c -0.07514,0.044 -0.1718,0.0188 -0.215846,-0.0564 -0.0018,-0.003 -0.0035,-0.006 -0.0051,-0.009 z m -0.03011,7.7083503 v 8.4e-4 c -0.198678,-5e-4 -0.397497,0.008 -0.596016,0.0297 -0.369043,0.0407 -0.737376,0.11555 -1.103191,0.23281 -0.241769,0.0775 -0.482456,0.17059 -0.72175,0.28136 -0.01152,0.005 -0.02302,0.0103 -0.03456,0.0157 -0.03545,0.0167 -0.07062,0.0361 -0.106014,0.0534 -0.07945,0.0391 -0.1588522,0.0776 -0.2378982,0.12044 l -0.355998,0.19252 1.5840752,-0.28879 c 0.53262,-0.0971 1.067147,-0.14115 1.601461,-0.13697 0.534315,-0.004 1.068645,0.0398 1.60125,0.13697 l 1.584075,0.28879 -0.355786,-0.19252 c -0.07905,-0.0429 -0.158673,-0.0814 -0.238109,-0.12044 -0.03535,-0.0174 -0.07055,-0.0368 -0.106015,-0.0534 -0.01154,-0.005 -0.02302,-0.0103 -0.03456,-0.0157 -0.239236,-0.11077 -0.480024,-0.20389 -0.72175,-0.28136 -0.365873,-0.11726 -0.73409,-0.19209 -1.103191,-0.23281 -0.198518,-0.0219 -0.397338,-0.0302 -0.596017,-0.0297 v -8.4e-4 c -0.01002,-1.2e-4 -0.01989,4.8e-4 -0.0299,4.2e-4 -0.01002,6e-5 -0.02009,-5.4e-4 -0.03011,-4.2e-4 z" style="fill:#fff;fill-opacity:1;fill-rule:nonzero;stroke:none;stroke-width:.141111px"/></svg>