<svg xmlns="http://www.w3.org/2000/svg" width="96" height="96" viewBox="0 0 25.399999 25.4"><path d="m 4.3343997,20.758429 c -0.12757,-0.0701 -0.13239,-0.15626 -0.0263,-0.47117 0.14162,-0.42055 0.17076,-0.45129 0.51527,-0.54358 0.36357,-0.0974 0.56186,-0.20151 0.75829,-0.39816 0.17962,-0.17982 0.26483,-0.33262 0.3213,-0.5761 0.0307,-0.13238 0.0341,-0.86746 0.0288,-6.17649 l -0.006,-6.0262303 -0.0527,-0.1459 c -0.0707,-0.19571 -0.15113,-0.31177 -0.28307,-0.40862 -0.18245,-0.13393 -0.54793,-0.26339 -1.04106,-0.36876 -0.33112,-0.0708 -0.36239,-0.16699 -0.192,-0.59089 0.10953,-0.2725 0.1439,-0.32456 0.25423,-0.3851 0.063,-0.0346 0.32163,-0.0386 2.8829,-0.0452 1.547506,-0.004 2.8903963,-3.2e-4 2.9841963,0.008 0.30912,0.0276 0.34198,0.12905 0.18478,0.57076 -0.12577,0.3534 -0.16525,0.39162 -0.49764,0.48179 -0.5011503,0.13594 -0.8049703,0.34788 -0.9651003,0.67323 -0.16162,0.32838 -0.15142,-0.10809 -0.1436,6.1448203 0.007,5.2908 0.01,5.65845 0.0482,5.88548 0.128,0.75328 0.38515,1.08994 0.9460303,1.23853 0.11947,0.0316 0.32978,0.039 1.35227,0.0471 1.30223,0.0104 1.49388,-1.8e-4 1.84257,-0.1012 0.68321,-0.19798 1.16399,-0.61074 1.63312,-1.40205 0.23532,-0.39692 0.27686,-0.45123 0.34519,-0.45123 0.0956,0 0.5908,0.16474 0.64754,0.2154 l 0.0519,0.0463 -9e-5,1.20101 c -8e-5,1.15283 -0.002,1.20399 -0.0454,1.27527 -0.0634,0.104 -0.21249,0.20554 -0.39078,0.26617 l -0.15187,0.0516 -5.4774203,0.005 c -3.948236,0.004 -5.490286,-0.002 -5.523536,-0.0202 z m 8.3685363,-4.36813 c -0.0437,-0.0437 -0.0552,-0.0734 -0.0446,-0.11547 0.0155,-0.0617 0.28182,-0.61029 0.31029,-0.63913 0.01,-0.01 0.12059,-0.0428 0.24655,-0.0734 0.61359,-0.14899 1.15653,-0.51411 1.47401,-0.99124 0.12617,-0.18963 0.23275,-0.39965 0.21289,-0.41951 -0.006,-0.006 -0.15451,0.002 -0.33057,0.0164 -0.35758,0.03 -1.25153,0.0154 -1.5309,-0.025 -0.34154,-0.0494 -0.6604,-0.1213 -0.83507,-0.18831 -0.40471,-0.15527 -0.86083,-0.52733 -1.26787,-1.03423 -0.12416,-0.15462 -0.31866,-0.44275 -0.31866,-0.47206 0,-0.0175 0.09,-0.0254 0.28252,-0.0247 0.17919,5.9e-4 0.31437,-0.0103 0.36959,-0.0299 0.28138,-0.0996 0.39949,-0.39794 0.29444,-0.7438 -0.0944,-0.31065 -0.40777,-0.86236 -0.74152,-1.30532 -0.04,-0.0531 -0.0669,-0.11172 -0.0598,-0.13029 0.0108,-0.0281 0.0314,-0.0245 0.12226,0.0216 0.24184,0.12244 0.40785,0.0384 0.4994,-0.2527103 0.0461,-0.14669 0.0517,-0.21148 0.0507,-0.5914 -10e-4,-0.46771 -0.0415,-0.80091 -0.1826,-1.5128 -0.0817,-0.41234 -0.0773,-0.49944 0.0189,-0.36861 0.0272,0.0371 0.11149,0.15123 0.18721,0.25369 0.2753,0.37253 0.82182,0.86665 0.95857,0.86665 0.0691,0 0.11305,-0.0968 0.14927,-0.32865 0.0185,-0.11817 0.0721,-0.11225 0.10438,0.0115 0.13809,0.5298 0.23776,0.71854 0.53925,1.02117 0.44921,0.45091 0.74204,0.49832 0.91801,0.14863 0.13915,-0.27653 0.18927,-0.62676 0.18969,-1.32547 1.7e-4,-0.29175 -0.008,-0.63163 -0.0179,-0.75531 -0.0138,-0.17091 -0.0115,-0.22486 0.01,-0.22486 0.0154,0 0.0834,0.0524 0.1511,0.11643 0.0677,0.064 0.19325,0.14966 0.27898,0.19027 0.13594,0.0644 0.17946,0.0737 0.34037,0.0728 0.1586,-8.5e-4 0.20556,-0.0112 0.33442,-0.0735 0.34084,-0.16498 0.713,-0.59472 0.99756,-1.15189 0.12301,-0.24086 0.16615,-0.2518 0.18841,-0.0478 0.0223,0.20459 0.12283,0.64396 0.19101,0.83511 0.14838,0.41596 0.37627,0.71569 0.63109,0.83004 0.11266,0.0506 0.17423,0.0631 0.3061,0.0622 0.16519,-10e-4 0.38175,-0.0586 0.49168,-0.13061 0.0569,-0.0373 0.12312,-0.0456 0.12312,-0.0154 0,0.0104 -0.0419,0.11679 -0.0931,0.2364 -0.16612,0.38795 -0.34593,0.89615 -0.43083,1.21767 -0.072,0.27269 -0.0833,0.35107 -0.0851,0.59113 -0.002,0.2256503 0.006,0.2907803 0.0394,0.3527303 0.12835,0.23508 0.46673,0.2189 0.96621,-0.0462 0.22867,-0.12137 0.45946,-0.3417503 0.65283,-0.6233903 0.12808,-0.18654 0.19604,-0.24606 0.19604,-0.1717 0,0.0167 -0.0112,0.0907 -0.0248,0.16449 -0.0288,0.15551 -0.0154,0.23254 0.0459,0.26537 0.12367,0.0662 0.78152,-0.21354 1.26844,-0.53936 0.16286,-0.10898 0.27147,-0.16796 0.28477,-0.15465 0.0133,0.0133 -0.0484,0.13896 -0.16169,0.32945 -0.54018,0.9079503 -0.83666,1.6126603 -0.8427,2.0030603 -0.005,0.29963 0.0985,0.40767 0.3684,0.386 0.10799,-0.009 0.14561,-0.004 0.14561,0.0174 0,0.016 -0.13232,0.12331 -0.29405,0.23847 -0.50597,0.36028 -0.84995,0.68752 -1.01027,0.96108 -0.12036,0.20538 -0.0961,0.49477 0.0543,0.64709 0.0805,0.0815 0.29777,0.18341 0.49478,0.23203 0.0856,0.0211 0.1556,0.0509 0.1556,0.0663 0,0.0324 -0.19047,0.18459 -0.43819,0.35023 -0.55795,0.37309 -1.08588,0.56084 -1.57699,0.56083 -0.59579,-10e-6 -1.51171,-0.23534 -2.33442,-0.59979 -0.17341,-0.0768 -0.31952,-0.13546 -0.32468,-0.1303 -0.005,0.005 -0.0307,0.0859 -0.0567,0.17948 -0.0606,0.21772 -0.21683,0.55041 -0.35865,0.76371 -0.16221,0.24396 -0.50808,0.58145 -0.78124,0.76231 -0.27953,0.18508 -0.54029,0.30837 -0.91274,0.43155 -0.34403,0.11378 -0.49895,0.12256 -0.58819,0.0333 z" style="fill:#fff;fill-opacity:1;stroke-width:4px"/></svg>