<svg xmlns="http://www.w3.org/2000/svg" width="96" height="96" viewBox="0 0 25.399999 25.4"><path d="m 21.104713,12.581069 c 0.08373,-0.10299 0.08912,-0.23432 -0.0243,-0.22589 -0.374744,0.0297 -2.057673,0.0912 -2.538756,0.12933 -0.02264,0.001 -0.09621,-0.0331 -0.09725,-0.0844 -0.0091,-0.30958 0.07056,-1.60767 0.06752,-1.87438 -3.11e-4,-0.11813 -0.06817,-0.20255 -0.166077,-0.14381 -0.536811,0.32444 -2.14887,1.92402 -2.738298,1.97498 -0.154979,0.0132 -0.235978,-0.0935 -0.268751,-0.12795 -0.317323,-0.33188 0.616116,-3.4557004 0.776143,-4.3216604 0.0429,-0.23597 -0.08608,-0.27007 -0.259936,-0.2066 -0.700537,0.25659 -0.671152,0.24138 -1.098893,0.38758 -0.0979,0.0324 -0.289667,0.0594 -0.348402,-0.0574 -0.302181,-0.6104 -0.885559,-3.05464 -1.029372,-3.3622 -0.143468,-0.30857 -0.250844,-0.23058 -0.334539,-0.0854 -0.253541,0.44192 -1.132324,1.9959 -1.20831,2.1404 -0.102294,0.19648 -0.240715,0.42065 -0.479735,0.30384 -0.482432,-0.17826 -0.752151,-0.34233 -1.3584843,-0.6563 -0.190414,-0.0986 -0.363267,-0.11782 -0.31231,0.10297 0.174201,0.75049 1.3166533,4.1180604 1.0901473,4.7436504 -0.0493,0.13673 -0.389264,0.31802 -0.60737,0.17825 -0.1704673,-0.11004 -1.9567273,-2.0624104 -2.1582733,-2.2713904 -0.105025,-0.10869 -0.266711,-0.18163 -0.295751,0.0115 -0.03274,0.21845 -0.192762,1.0290204 -0.276153,1.3983404 -0.03376,0.1489 -0.09756,0.23601 -0.255227,0.20189 -0.08778,-0.0196 -2.173488,-0.60833 -2.308188,-0.64076 -0.277851,-0.0668 -0.324438,0.0952 -0.195137,0.30249 0.614439,0.98886 1.021926,1.55872 1.179249,2.04588 0.0449,0.13673 -0.04321,0.26367 -0.175891,0.3295 -0.39567,0.20019 -0.942925,0.397 -1.279179,0.53477 -0.248476,0.10126 -0.195472,0.31597 -0.02566,0.37913 2.10428,0.86797 5.9303233,1.7248 4.862473,2.64544 -0.15733,0.12086 -0.762315,0.49931 -0.997256,1.10094 -0.04121,0.10599 -0.06855,0.23563 0.141774,0.19715 1.39499,-0.24915 2.7575533,0.005 4.0356953,0.3538 l -0.04456,2.95944 0.946299,-0.006 -0.02026,-2.69948 c 0.291361,0.0878 0.578988,0.1749 0.859562,0.25659 0.917606,0.26806 2.037415,0.53543 2.810551,0.2208 0.08608,-0.0297 0.08204,-0.16476 -0.08643,-0.27819 -0.417646,-0.40717 -0.685672,-0.99459 -0.225192,-1.27479 0.486476,-0.47064 3.447581,-1.20966 3.771369,-1.28021 0.148204,-0.0331 0.0503,-0.18095 0.0088,-0.2272 -0.181323,-0.20221 -0.496952,-0.51991 -0.856866,-0.95574 -0.03205,-0.0385 -0.04186,-0.11107 0.0044,-0.18433 0.200544,-0.25153 0.639762,-0.86291 1.516851,-1.93446 z" style="fill:#fff;fill-opacity:1;fill-rule:nonzero;stroke:none;stroke-width:1.41111px"/></svg>