<svg xmlns="http://www.w3.org/2000/svg" width="96" height="96" viewBox="0 0 25.399999 25.4"><path d="m 15.980522,11.74397 c -0.09669,0.0856 -0.410413,0.11686 -0.456323,0.27477 -0.05704,0.19407 0.195468,0.3645 0.142601,0.50084 -0.03965,0.10225 -0.247638,0.17947 -0.954383,0.0939 -1.206891,-0.25321 -0.189903,0.57318 -0.649008,0.97873 -0.269203,0.071 -0.959252,-0.33459 -1.227759,-0.57597 -0.755437,-0.78813 -0.143992,1.14985 -0.433368,1.54704 -0.122428,0.25321 -0.505711,0.55858 -0.571099,0.82987 -0.317895,-0.0557 -0.122428,-0.18086 -0.162078,-0.46815 0.102951,-0.24903 0.305375,-0.18573 0.411108,-0.42502 0.212162,-0.47928 0.242074,-1.75086 0.153731,-1.65208 -0.129384,0.0967 -0.178077,0.0675 -0.311635,0.16903 -0.32207,0.24486 -0.658747,0.48902 -1.027423,0.6511 -0.382587,-0.0181 -0.08695,-0.46745 -0.064,-0.6831 -0.320678,-0.10156 -0.727613,0.0334 -1.0628993,-0.032 -0.484843,-0.0543 -0.26642,-0.40068 -0.541883,-0.60519 -0.189207,-0.23025 -1.080984,-0.4751 -0.493191,-0.72622 1.3272323,-0.25042 0.391631,-0.95786 0.0028,-1.6444303 -0.02643,-0.073 -0.04243,-0.18225 -0.0021,-0.22051 1.1102,0.0703 -0.473018,-1.23054 0.146774,-1.30219 1.5407863,0.87786 0.29981,-0.83752 1.8308573,0.48415 0.06539,0.0125 0.163469,0.0202 0.239987,-0.0334 0.326243,-0.22956 -0.07652,-1.33628 0.119645,-1.4121 0.04521,-0.0174 0.08417,0.0341 0.237205,0.0264 0.05704,-0.003 0.124515,-0.007 0.194772,-0.0445 0.06052,-0.0327 0.10156,-0.0786 0.13008,-0.12103 0.03478,-0.0522 0.07234,-0.10156 0.114081,-0.14817 0.04174,-0.0466 0.08626,-0.10782 0.121037,-0.18573 0.0313,-0.0703 0.04661,-0.13495 0.05426,-0.18573 0.116863,-0.42015 0.214249,-0.4598 0.258768,-0.46049 0.160687,-10e-4 0.386761,0.51893 0.394413,0.74222 6.95e-4,0.0278 6.95e-4,0.11477 0.05495,0.19407 0.03409,0.0501 0.08069,0.0835 0.104342,0.10087 0.0042,0.003 0.06539,0.0466 0.130776,0.0696 0.159991,0.0549 0.262942,-0.0508 0.340851,-0.005 0.08487,0.0501 0.137036,0.20312 0.08556,0.60727 -0.0473,0.34085 -0.346416,1.18602 0.258768,0.91613 0.454236,-0.10991 0.823608,-1.07473 1.099766,-0.73735 0.127993,0.11408 0.308852,0.0389 0.410413,-0.0257 0.39789,-0.20938 1.124806,-0.38676 0.687962,0.26294 -0.08486,0.38537 0.429889,0.0355 -0.107124,0.65179 -0.0946,0.26781 0.309548,0.24347 0.27894,0.42224 -0.297722,0.32694 -1.190891,1.0733303 -0.467453,1.3251403 0.274072,0.023 0.470931,0.23512 0.72483,0.29425 0.127298,0.004 0.200336,0.0306 0.219814,0.0786 0.03548,0.0863 -0.103646,0.24416 -0.417368,0.47302 M 19.81057,10.28657 C 19.7744,9.6090397 19.624146,8.9447297 19.359812,8.2734597 c -0.235813,-0.58501 -0.543274,-1.12759 -0.922385,-1.62008 -0.107124,-0.1433 -0.221204,-0.2859 -0.342937,-0.42155 -0.543275,-0.59962 -1.179762,-1.08515 -1.923373,-1.44896 -0.750567,-0.3645 -1.558176,-0.54954 -2.438128,-0.54954 H 5.5824777 V 21.16667 h 3.717362 l 0.04382,-4.25507 h 4.5256663 c 0.879256,0 1.686865,-0.17808 2.42352,-0.53493 0.192685,-0.0932 0.371457,-0.19338 0.550231,-0.30746 0.500842,-0.30677 0.943948,-0.67823 1.330014,-1.11368 0.521711,-0.59266 0.922385,-1.27089 1.208282,-2.03467 v -0.0139 c 0.285896,-0.74987 0.436149,-1.53522 0.436149,-2.33448 0,-0.10016 0,-0.19268 -0.007,-0.28589" style="fill:#fff;fill-opacity:1;fill-rule:nonzero;stroke:none;stroke-width:1.41111px"/></svg>