<svg xmlns="http://www.w3.org/2000/svg" width="96" height="96" viewBox="0 0 25.399999 25.4"><path d="M 12.700001,4.2333322 A 8.4666672,8.4666672 0 0 0 4.2333342,12.7 8.4666672,8.4666672 0 0 0 12.700001,21.166667 8.4666672,8.4666672 0 0 0 21.166665,12.7 8.4666672,8.4666672 0 0 0 12.700001,4.2333322 Z m 0,2.116667 A 6.3500004,6.3500004 0 0 1 19.050005,12.7 6.3500004,6.3500004 0 0 1 12.700001,19.05 6.3500004,6.3500004 0 0 1 6.3500012,12.7 6.3500004,6.3500004 0 0 1 12.700001,6.3499992 Z m 0,0.529167 A 5.8208337,5.8208337 0 0 0 6.8791672,12.7 5.8208337,5.8208337 0 0 0 12.700001,18.520833 5.8208337,5.8208337 0 0 0 18.520835,12.7 5.8208337,5.8208337 0 0 0 12.700001,6.8791662 Z m 0,0.529167 A 5.291667,5.291667 0 0 1 17.991665,12.7 5.291667,5.291667 0 0 1 12.700001,17.991666 5.291667,5.291667 0 0 1 7.4083342,12.7 5.291667,5.291667 0 0 1 12.700001,7.4083332 Z m 1.090889,2.6127598 c -0.05719,-0.0015 -0.114214,10e-4 -0.171565,0.0083 -0.210363,0.02655 -0.446228,0.11695 -0.589628,0.225826 -0.06039,0.04585 -0.538932,0.493863 -1.063502,0.995289 -0.682897,0.652769 -0.953899,0.923577 -0.953946,0.953947 -4.3e-5,0.02799 0.04066,0.07643 0.119889,0.142626 0.24747,0.206787 0.402253,0.263988 0.683162,0.252698 0.173152,-0.007 0.205423,-0.01445 0.336414,-0.07958 0.125352,-0.06233 0.226421,-0.148834 0.752409,-0.643372 0.334283,-0.314297 0.633082,-0.58443 0.664042,-0.60048 0.07558,-0.03919 0.168738,-0.01968 0.235128,0.04961 0.04608,0.04811 0.05791,0.08862 0.09095,0.303858 0.135343,0.881668 0.524495,1.663506 1.050582,2.111499 l 0.127641,0.10852 1.170469,-0.144177 c 0.60921,-0.07518 1.06638,-0.133734 1.1312,-0.144177 a 4.7625003,4.7625003 0 0 0 0.0858,-0.826823 c 1.7e-4,-0.03799 3.9e-4,-0.07187 5.2e-4,-0.113688 a 4.7625003,4.7625003 0 0 0 -0.32246,-1.644345 c -0.43677,0.08385 -1.18113,0.217891 -1.227837,0.218592 -0.06335,9.34e-4 -0.158161,-0.05862 -0.764811,-0.481625 -0.38079,-0.265513 -0.762784,-0.518324 -0.849044,-0.561722 -0.163485,-0.08225 -0.333823,-0.126168 -0.505396,-0.130742 z m -1.693436,0.153996 c -0.127771,0.0027 -0.271052,0.01231 -0.372587,0.02739 -0.582593,0.08651 -1.190019,0.378145 -1.7249598,0.828374 -0.168113,0.141491 -0.209588,0.164764 -0.289388,0.163814 -0.03374,-4.06e-4 -0.437265,-0.06286 -0.897103,-0.13901 -0.288095,-0.04771 -0.381103,-0.06189 -0.537435,-0.08682 a 4.7625003,4.7625003 0 0 0 -0.335897,1.695504 l 5.17e-4,0.07545 a 4.7625003,4.7625003 0 0 0 0.100253,0.890385 l 0.689363,0.131775 c 0.432678,0.08285 0.803503,0.159694 0.823723,0.170532 0.02022,0.01084 0.094,0.08016 0.163814,0.153996 0.4804248,0.508131 1.0250888,1.050619 1.1069088,1.102259 0.124593,0.07864 0.279325,0.136892 0.452169,0.170532 0.187006,0.03639 0.385238,0.02246 0.498161,-0.03566 0.0504,-0.02594 0.123538,-0.09017 0.167948,-0.146761 0.04329,-0.05517 0.109538,-0.115489 0.147278,-0.134359 0.06791,-0.03395 0.07039,-0.03358 0.253214,0.03101 0.318981,0.112679 0.583728,0.09805 0.822173,-0.04496 0.126258,-0.07572 0.273655,-0.231525 0.361735,-0.382923 0.04092,-0.07034 0.09023,-0.124858 0.134358,-0.148828 0.06937,-0.03768 0.07062,-0.03811 0.258899,0.0072 0.217553,0.05241 0.368888,0.04676 0.519348,-0.01964 0.100274,-0.04425 0.2186,-0.149441 0.28112,-0.250114 l 0.04031,-0.0646 -0.08578,-0.0708 C 14.168167,13.679666 13.75532,12.976923 13.552145,12.186853 l -0.06408,-0.249598 -0.408243,0.383956 c -0.569026,0.535626 -0.627297,0.578608 -0.922425,0.677478 -0.114842,0.03851 -0.174733,0.04572 -0.390674,0.04496 -0.223039,-7.8e-4 -0.274809,-0.0075 -0.413411,-0.05374 -0.26348,-0.08786 -0.616993,-0.350778 -0.729155,-0.541569 -0.07175,-0.122161 -0.07618,-0.338159 -0.0093,-0.473873 0.03315,-0.06727 0.262844,-0.298466 0.925008,-0.931209 0.761909,-0.728056 0.875172,-0.843698 0.838192,-0.854728 -0.04064,-0.01212 -0.152833,-0.0161 -0.280603,-0.01344 z" style="fill:#fff;fill-opacity:1;stroke:none;stroke-width:.79375;stroke-linecap:round;stroke-linejoin:bevel;stroke-miterlimit:128;stroke-dasharray:none;stroke-opacity:1;paint-order:stroke fill markers"/></svg>