<svg xmlns="http://www.w3.org/2000/svg" width="96" height="96" viewBox="0 0 25.399999 25.4"><path d="m 15.876653,4.9602494 c -0.715516,0.190396 -1.758011,1.376023 -2.236108,1.939223 -0.319679,0.35165 -0.852131,1.297 -0.954617,0.64213 -0.03197,-0.20309 -0.05329,-0.38443 -0.05846,-0.6712 -0.01081,-0.55144 -0.0023,-0.72357 0.08937,-0.95064 -0.301343,-0.401477 -0.535936,-0.362899 -0.783216,-0.15793 -0.263265,0.23835 -0.376403,0.30605 -0.673036,0.80954 -0.273607,0.51055 -0.44291,1.25414 -0.389317,1.89913 l 0.06397,0.47961 0.536223,0.007 c -0.01363,-0.59799 -0.349075,-1.35847 0.532861,-2.48158 0.07005,0.29242 0.107238,0.51333 0.121812,0.85699 0.02021,0.4861 0.131416,0.92032 0.407374,1.03174 0.260914,0.0813 0.472042,0.0548 0.853306,-0.32412 0.169241,-0.20403 0.256279,-0.34705 0.643654,-0.77955 0.341303,-0.42546 0.74595,-0.83676 1.128154,-0.97451 0,0 -0.366022,0.62762 -0.537144,1.1156 -0.164541,0.48798 -0.403082,1.14184 -0.122423,1.45259 0.173002,0.22142 0.67234,0.0328 0.884832,-0.008 0.523239,-0.10343 1.396811,-0.29186 1.530324,0.0551 -0.171141,0.0836 -0.336903,0.18535 -0.496437,0.29903 h 0.831272 c -0.447771,0.28716 -0.784984,0.51786 -1.066941,0.78811 -0.262794,0.2350496 -0.886886,0.8682796 -1.322199,1.6209156 -0.174413,0.15796 -0.283522,0.22863 -0.494604,0.27423 -0.05084,-0.14335 0.807579,-1.797186 2.051551,-2.6832556 H 9.7118947 L 6.7467427,20.44091 h 0.59805 c 0.0046,-0.0129 0.03703,-0.10406 0.03703,-0.10406 0.170981,-0.45413 1.08036,-2.17717 1.416774,-2.49779 0.07885,-0.088 0.172491,-0.13377 0.287394,-0.13406 0.191507,-4.7e-4 0.442124,0.12605 0.781687,0.39666 0.6088003,0.42405 1.2387683,0.8559 1.8216973,0.98706 0.227536,0.0451 0.487458,0.0934 0.596525,0.0502 0.143841,-0.0747 0.03647,-0.70132 0.0407,-0.85881 0.210142,0.14103 0.391366,0.52199 0.408291,0.82239 0.01504,0.19369 -0.008,0.31774 -0.14293,0.40095 -0.138213,0.0795 -0.32964,0.12232 -0.649774,0.11385 -1.110412,-0.1777 -1.366066,-0.37484 -1.910459,-0.6461 -0.3765633,-0.19745 -0.9595123,-0.70058 -0.9595123,-0.70058 -0.22147,0.0719 -0.419641,0.46472 -0.553671,0.64947 -0.115237,0.13975 -0.479033,0.8367 -0.649163,1.52083 H 18.201208 L 21.166667,9.2004124 h -3.91732 c 0.145214,-0.0931 0.301767,-0.19191 0.473481,-0.30087 0.07334,-0.22659 0.08727,-0.57161 -0.06458,-0.6614 -0.527469,-0.40947 -2.035561,0.10228 -2.619915,0.067 4.7e-4,-0.28113 0.07844,-0.51649 0.179048,-0.83005 0.250102,-0.61915 0.480463,-1.15312 1.103366,-1.890258 -0.05924,-0.207321 -0.221265,-0.646611 -0.444099,-0.624985 z m -9.0353373,3.610343 c -0.186551,0.006 -0.364338,0.0959 -0.505925,0.2724 -0.06995,0.14291 0.219511,0.77145 0.317389,1.09723 0.08392,0.3605796 0.330146,1.2957696 -0.0098,1.3592396 -0.597375,0.0381 -1.366645,-0.49472 -1.995235,-0.24792 -0.18311,0.0907 -0.329744,0.23604 -0.414412,0.579686 0.06704,0.42076 0.525567,0.683242 0.82362,0.979412 0.239994,0.22942 0.421639,0.44983 0.568362,0.64916 -0.04316,-0.0583 0.38057,0.46824 0.609375,0.88147 0.153868,0.27831 0.294861,0.48976 0.385029,0.65712 0,0 0.622657,1.15193 0.448385,0.34616 -0.20182,-0.93224 -0.370552,-1.32908 -0.929518,-2.18469 -0.1754,-0.29006 -0.613719,-0.83551 -0.987977,-1.203142 -0.36086,-0.35493 0.589272,-0.20911 0.89983,-0.13436 0.19867,0.04 0.758503,0.18994 0.981243,0.0386 0.427664,-0.2186 0.365699,-1.072246 0.306371,-1.505216 -0.06535,-0.2665596 -0.139857,-0.4759396 -0.277601,-0.7890396 0,0 0.418685,0.2895 0.646409,0.9114596 0.122841,0.24164 0.273836,0.60691 0.392681,0.84902 0.04866,0.0879 0.465083,0.871706 0.542041,0.961966 l 0.218529,-0.802506 c -0.07103,-0.20402 -0.555876,-1.16871 -0.594989,-1.25333 -0.282445,-0.5613196 -0.693619,-1.2731296 -1.343318,-1.4602296 -0.02693,-0.003 -0.05384,-0.003 -0.08049,-0.002 z M 16.849326,12.037988 c 0.277368,0.0729 0.2594,0.445202 0.187002,0.568372 -0.307925,0.16266 -0.802957,0.59222 -1.044596,0.91237 0.463064,0.18523 1.840027,-0.20314 2.4225,-0.21302 0.268435,-0.0193 0.494646,0.0156 0.669058,0.15762 -0.04137,0.2722 -0.01405,0.40058 -0.113246,0.53409 -0.470571,0.43203 -2.147496,0.86628 -2.343534,1.38341 -0.02868,0.0888 -6.11e-4,0.22663 0.14936,0.28586 0.412292,0.16407 0.918121,0.32342 1.123562,0.60173 0.09966,0.11517 0.03446,0.5773 -0.14936,0.75077 -0.421224,0.26984 -0.772978,0.36538 -1.405753,0.44624 -1.129687,0.0658 -1.643495,0.008 -2.691838,-0.26628 -0.998055,-0.3225 -1.15843,-0.23649 -1.244461,0.51052 -0.145266,-0.13727 -0.171052,-0.21949 -0.20537,-0.31586 -0.03432,-0.11095 -0.09608,-0.43981 0.0073,-0.57051 0.146206,-0.22847 0.59305,-0.21251 1.779151,0.0141 0.630895,0.11847 1.134276,0.13804 1.134276,0.13804 0.456011,0.024 1.692946,-0.004 1.962792,-0.2877 0.05406,-0.0846 0.06522,-0.15518 0.02479,-0.25342 -0.126931,-0.24069 -0.360108,-0.31622 -0.646409,-0.4441 -0.230356,-0.0771 -0.419272,-0.21874 -0.512355,-0.37247 -0.138214,-0.18758 -0.03745,-0.56352 0.300559,-0.82914 0.658632,-0.45836 1.151162,-0.43622 1.801802,-0.83769 -0.250572,-0.0733 -0.390765,-0.0902 -0.707623,-0.0658 -0.593755,0.0447 -1.40178,0.34786 -1.845569,0.008 -0.323439,-0.3634 0.555201,-1.11744 0.555201,-1.11744 -0.350706,0.094 -1.06521,0.3498 -1.321893,0.39023 -0.543453,0.0804 -0.690336,-0.44629 -0.644265,-0.69875 0.147616,-0.540632 0.19467,-0.0977 0.299022,0.0471 0.249161,0.52089 1.729286,-0.12271 2.459845,-0.476242 z M 6.1936827,15.92961 c -0.312767,0.0658 -1.851295,0.59136 -0.737922,1.15691 0.257858,0.13868 1.079406,0.29196 1.717023,0.55428 l 0.120283,-0.39268 c -0.843432,-0.23317 -1.477782,-0.56972 -1.511959,-0.6816 0,0 -0.120911,-0.0925 0.412575,-0.63691 z" style="fill:#fff;fill-opacity:1;fill-rule:evenodd;stroke:none;stroke-width:.3175px"/></svg>