<svg xmlns="http://www.w3.org/2000/svg" width="96" height="96" viewBox="0 0 25.399999 25.4"><path d="M 8.4205187,6.6206147 4.2333327,18.779385 h 5.8821933 l 0.964984,-2.79425 h 0.587378 l -0.964973,2.79425 h 10.463752 l -4.1704,-4.34661 c 1.741844,-0.64851 3.283737,-2.06825 3.851535,-3.71728 0.769085,-2.2335803 -0.541341,-4.0443603 -2.928503,-4.0864903 v -0.008 h -0.08392 z m 5.5885053,1.67823 c 0.0065,-8.3e-4 0.0064,1.6e-4 0.0084,0.008 0.0076,-0.008 0.01919,-0.009 0.02518,-0.008 0.04193,0.006 0.04948,0.21645 0.05034,0.34403 3.31e-4,0.0512 0.02819,0.13575 0.04196,0.21817 0.01377,0.0824 0.03717,0.16226 0.04195,0.193 0.01146,0.0737 0.05932,0.1215 0.100693,0.18461 0.03627,0.0553 0.167459,0.0952 0.218172,0.10908 0.08172,0.0224 0.231949,-0.003 0.293689,-0.0168 0.122715,-0.0272 0.185189,-0.024 0.327254,-0.0671 0.08321,-0.0253 0.154581,-0.0724 0.159432,-0.042 0.0048,0.0305 -0.346461,0.48957 -0.419557,0.61256 -0.05445,0.0916 -0.296219,0.5192503 -0.360818,0.5957703 -0.08435,0.0999 -0.271262,0.44547 -0.335652,0.55381 -0.07397,0.12449 -0.139284,0.24222 -0.209774,0.36082 -0.0901,0.1516 0.05129,0.13608 0.134257,0.1007 0.05666,-0.0242 0.554876,-0.46506 0.662906,-0.54543 0.149314,-0.11107 0.660321,-0.51674 0.746811,-0.59577 0.10067,-0.092 0.198143,-0.12857 0.218161,0 0.01205,0.0773 -0.05236,0.2093 -0.05873,0.27691 -0.0036,0.0385 0.08359,0.29628 0.209774,0.2769 0.126174,-0.0193 0.370005,-0.10933 0.478297,-0.13425 0.121773,-0.028 0.268579,-0.0839 0.40277,-0.0839 0.159969,0 -0.0011,0.12473 -0.05873,0.19299 -0.05478,0.0649 -0.08081,0.11974 -0.142656,0.193 -0.0722,0.0855 -0.178147,0.22329 -0.234949,0.31886 -0.05494,0.0924 -0.17979,0.20421 -0.17622,0.29369 0.006,0.14924 0.343811,0.3106 0.335652,0.27691 -0.0046,-0.0191 0.125266,-0.008 0.151034,-0.008 0.162498,0 -0.07939,0.19178 -0.09229,0.20139 -0.06366,0.0473 -0.538724,0.26108 -0.654517,0.31047 -0.106201,0.0453 -0.540027,0.25448 -0.671284,0.31047 -0.119035,0.0508 -1.090052,0.52963 -1.116027,0.53703 -0.02599,0.007 -0.03548,0.0236 -0.04195,0.0923 -0.0082,0.0873 -0.0016,0.24715 -0.0084,0.31886 -0.0103,0.10915 -0.04967,0.37727 0.02517,0.44473 0.145196,0.13088 -1.457813,-0.14655 -1.611102,-0.193 -0.04829,-0.0146 -0.04554,-0.0182 -0.159422,0.29369 -0.0061,0.0167 -0.35498,0.96365 -0.360828,0.96498 -0.03768,0.009 -0.239943,-4.1e-4 -0.276902,0 -0.03666,-4.1e-4 -0.245199,0.009 -0.276912,0 -0.0049,-0.001 0.305089,-0.94833 0.310476,-0.96498 0.100945,-0.31194 0.100343,-0.30835 0.04195,-0.29369 -0.185276,0.0465 -1.9722923,0.32387 -1.7369703,0.193 0.1213133,-0.0675 0.2540033,-0.33558 0.3188653,-0.44473 0.04262,-0.0717 0.157866,-0.23152 0.209784,-0.31886 0.04086,-0.0687 0.04605,-0.0849 0.02518,-0.0923 -0.02088,-0.007 -0.6627423,-0.48625 -0.7468223,-0.53703 -0.0927,-0.056 -0.386508,-0.26516 -0.46151,-0.31047 -0.08178,-0.0494 -0.405289,-0.26314 -0.436334,-0.31047 -0.0063,-0.01 -0.120546,-0.20139 0.04195,-0.20139 0.02577,0 0.160386,-0.0107 0.142645,0.008 -0.03136,0.0337 0.428286,-0.12768 0.537038,-0.27691 0.0652,-0.0895 0.01646,-0.20125 0.02518,-0.29369 0.009,-0.0956 -0.0035,-0.23335 -0.01679,-0.31886 -0.0114,-0.0733 -0.0067,-0.12813 -0.01678,-0.193 -0.01062,-0.0683 -0.08445,-0.19298 0.07552,-0.19299 0.134191,0 0.241564,0.0559 0.3440413,0.0839 0.09113,0.0249 0.281523,0.11491 0.394382,0.13425 0.112837,0.0194 0.371516,-0.23844 0.394382,-0.2769 0.04018,-0.0676 0.06898,-0.19959 0.134256,-0.27691 0.108566,-0.12856 0.180852,-0.092 0.218173,0 0.03206,0.079 0.262819,0.4847 0.335641,0.59577 0.0527,0.0804 0.245276,0.52127 0.285301,0.54543 0.0586,0.0354 0.195483,0.0509 0.209785,-0.1007 0.01118,-0.11859 0.02182,-0.23634 0.03356,-0.36082 0.01022,-0.10833 0.0575,-0.45392 0.04195,-0.55381 -0.01191,-0.0765 0.0501,-0.5041703 0.05874,-0.5957703 0.0116,-0.12299 -0.02581,-0.58211 0,-0.61256 0.02581,-0.0304 0.06844,0.0167 0.134257,0.042 0.112344,0.0432 0.172913,0.04 0.276913,0.0671 0.05231,0.0137 0.1882,0.0391 0.285289,0.0168 0.06027,-0.0139 0.219323,-0.0538 0.293701,-0.10908 0.08482,-0.0631 0.15595,-0.11093 0.218161,-0.18461 0.02595,-0.0307 0.105686,-0.11057 0.17622,-0.193 0.07053,-0.0824 0.174161,-0.16695 0.209773,-0.21817 0.08872,-0.12757 0.231106,-0.33841 0.276913,-0.34403 z" style="fill:#fff;fill-opacity:1;fill-rule:evenodd;stroke:none;stroke-width:.264582px;stroke-linecap:butt;stroke-linejoin:miter;stroke-opacity:1"/></svg>