<svg xmlns="http://www.w3.org/2000/svg" width="96" height="96" viewBox="0 0 25.399999 25.4"><path fill="#006800" d="m 19.862923,11.577615 a 4.3348523,4.3348523 0 0 0 0.21467,-1.08178 c 0.04381,-0.5462805 0.04179,-1.0969405 0.04179,-1.6455805 0,-0.12705 0.02056,-0.28881 -0.139519,-0.37744 h -3.449551 c -0.917655,-1.73758 -2.184444,-3.13917 -3.825642,-4.23544 v -0.002 l -0.0027,-0.002 h -0.0017 l -0.0057,0.002 v 0.002 c -1.638522,1.09627 -2.9066602,2.49786 -3.8243158,4.23544 H 5.4207063 c -0.159739,0.0886 -0.140193,0.25039 -0.140193,0.37744 0,0.54864 -0.0024,1.0993 0.04145,1.6455805 a 4.3348523,4.3348523 0 0 0 0.21467,1.08178 c 0.238935,0.67872 0.474836,1.36486 0.9156339,1.95225 0.044147,0.059 0.063019,0.13716 0.087957,0.19345 -0.6032329,0.9035 -0.9705649,1.87439 -1.1488389,2.91337 a 7.2381216,7.2381216 0 0 0 -0.0098,2.34351 l 6.3157487,0.0519 v 2.11233 c 0.337002,0.008 0.667937,0.0169 0.99921,0.0222 h 0.0088 c 0.331273,-0.005 0.662545,-0.0145 0.999547,-0.0222 v -2.11233 l 6.315411,-0.0519 a 7.2286855,7.2286855 0 0 0 -0.01045,-2.34351 c -0.178274,-1.03898 -0.545606,-2.00988 -1.14985,-2.91337 0.02494,-0.0563 0.04381,-0.13481 0.08796,-0.19345 0.440124,-0.58739 0.676363,-1.27353 0.914961,-1.95225 z m -8.179367,5.26767 H 7.586963 c -0.096383,-0.31139 0.3332947,-1.37766 0.8549731,-2.0975 0.792628,-1.09357 1.8693489,-1.75544 3.2237589,-2.04627 0.03134,1.37497 0.02528,2.74521 0.01786,4.14377 z m 6.13343,0 h -4.098277 c -0.0091,-1.39856 -0.01517,-2.7688 0.01618,-4.14512 1.35441,0.29083 2.43113,0.95271 3.223758,2.04627 0.521341,0.72119 0.951355,1.78746 0.85531,2.09885 z m -0.43271,-4.78947 c -0.0701,-0.0158 -0.125702,-0.0132 -0.161087,-0.0391 a 8.3023727,8.3023727 0 0 0 -1.545153,-0.89945 7.7847382,7.7847382 0 0 0 -2.973365,-0.62379 h -0.01011 a 7.7847382,7.7847382 0 0 0 -2.9733666,0.62379 8.3239408,8.3239408 0 0 0 -1.5424565,0.90081 c -0.0337,0.0259 -0.09099,0.0232 -0.1610867,0.0391 -0.2345533,-0.46001 -0.4374283,-0.91529 -0.570544,-1.44001 h 2.7492608 c 0.572903,-1.6449005 1.7241,-3.0687205 2.503922,-3.6979105 0.779822,0.62919 1.930682,2.05301 2.503922,3.6979105 h 2.749596 c -0.133452,0.52472 -0.336327,0.98 -0.569532,1.43866 z" style="fill:#fff;fill-opacity:1;stroke-width:.711351px"/></svg>